<svg width="24" height="25" viewBox="0 0 24 25" fill="none" xmlns="http://www.w3.org/2000/svg">
<rect y="0.280029" width="24" height="24" rx="6.42857" fill="#FFAA04"/>
<g clip-path="url(#clip0_5030_68)">
<path d="M16.9215 12.3354C16.9214 13.4214 16.5775 14.4796 15.9391 15.3582C15.3007 16.2368 14.4006 16.8907 13.3677 17.2263C12.3348 17.5619 11.2221 17.5619 10.1893 17.2262C9.15637 16.8906 8.25624 16.2366 7.61789 15.358C6.97954 14.4793 6.63573 13.4211 6.63574 12.3351C6.63575 11.249 6.97957 10.1909 7.61794 9.31223C8.2563 8.43359 9.15643 7.7796 10.1893 7.44399C11.2222 7.10837 12.3348 7.10835 13.3677 7.44394" stroke="white" stroke-width="1.6" stroke-linecap="round" stroke-linejoin="round"/>
</g>
<defs>
<clipPath id="clip0_5030_68">
<rect width="13.7143" height="13.7143" fill="white" transform="translate(5.14282 5.42291)"/>
</clipPath>
</defs>
</svg>
